<svg width="20" height="19" viewBox="0 0 20 19" fill="none" xmlns="http://www.w3.org/2000/svg">
<path d="M18.5158 5.61754C16.3114 5.96613 14.0821 6.1374 11.8496 6.12964C11.6572 5.48679 11.4679 4.84393 11.2865 4.20263C10.9321 2.94389 10.6014 1.6779 10.2943 0.404633C10.1918 -0.02342 9.49612 -0.175962 9.30683 0.269212C8.83361 1.40705 8.5055 2.60405 8.16163 3.78547C7.93343 4.56997 7.70523 5.35552 7.47703 6.1421C6.49431 6.24171 5.51631 6.39893 4.532 6.48454C3.2054 6.59817 1.87722 6.6542 0.547463 6.71179C0.132604 6.72892 -0.227046 7.33442 0.167307 7.64573C1.99079 9.09644 4.2181 9.80623 6.16305 11.0515C6.16305 11.0826 6.14885 11.1153 6.14254 11.1464C6.02326 11.7382 5.8684 12.3224 5.67878 12.896C5.48003 13.4704 5.23395 14.0245 5.00838 14.588C4.56541 15.6966 4.22591 16.8428 3.99411 18.0124C3.9247 18.1073 3.87265 18.635 4.1692 18.7393C4.53043 19.0024 4.91532 18.6599 5.07148 18.4762C5.84599 17.698 6.376 16.9306 7.07795 16.1943C7.88716 15.332 8.71688 14.4883 9.57657 13.6805C10.2769 14.286 10.9678 14.9024 11.6698 15.5017C12.6554 16.3601 13.6908 17.161 14.771 17.9003C15.1511 18.1556 15.7174 17.7291 15.5597 17.2777C14.7899 15.0767 14.0201 12.8758 13.2866 10.6623C13.9775 10.158 14.6763 9.66302 15.3736 9.16337L18.929 6.61996C19.0382 6.55017 19.1192 6.44497 19.1582 6.32251C19.1971 6.20005 19.1915 6.06801 19.1424 5.94919C19.0932 5.83037 19.0035 5.73221 18.8888 5.67166C18.7742 5.61111 18.6416 5.59197 18.5142 5.61754" fill="#FEDA3F"/>
</svg>
