<svg width="15" height="14" viewBox="0 0 15 14" fill="none" xmlns="http://www.w3.org/2000/svg">
<path d="M13.9545 3.95342C12.4033 4.19873 10.8345 4.31925 9.26353 4.31379C9.12811 3.86141 8.99491 3.40903 8.86725 2.95774C8.61787 2.07197 8.38513 1.18108 8.16904 0.285081C8.09689 -0.0161417 7.60737 -0.123486 7.47416 0.189785C7.14115 0.990488 6.91027 1.83282 6.66828 2.66419C6.5077 3.21625 6.34711 3.76904 6.18653 4.32255C5.49498 4.39266 4.80676 4.50329 4.1141 4.56353C3.18057 4.64349 2.24592 4.68293 1.31017 4.72345C1.01823 4.7355 0.76514 5.1616 1.04265 5.38067C2.32584 6.40154 3.89321 6.90102 5.26187 7.7773C5.26187 7.79921 5.25188 7.82221 5.24744 7.84412C5.16351 8.26054 5.05453 8.67165 4.92109 9.07529C4.78123 9.47948 4.60807 9.86943 4.44933 10.2659C4.13761 11.0461 3.8987 11.8527 3.73558 12.6757C3.68674 12.7425 3.65011 13.1139 3.85879 13.1873C4.11299 13.3724 4.38384 13.1314 4.49373 13.0021C5.03876 12.4545 5.41173 11.9145 5.90569 11.3963C6.47514 10.7895 7.05901 10.1958 7.66398 9.62735C8.15683 10.0534 8.64303 10.4872 9.13699 10.9089C9.83053 11.513 10.5592 12.0766 11.3193 12.5969C11.5868 12.7765 11.9853 12.4764 11.8743 12.1587C11.3326 10.6099 10.7909 9.06106 10.2748 7.50346C10.761 7.14857 11.2527 6.80025 11.7433 6.44864L14.2453 4.65883C14.3222 4.60972 14.3792 4.53569 14.4066 4.44951C14.434 4.36333 14.4301 4.27042 14.3955 4.18681C14.3609 4.10319 14.2978 4.03412 14.2171 3.99151C14.1364 3.9489 14.0431 3.93543 13.9534 3.95342" fill="#FEDA3F"/>
</svg>
